<svg width="50" height="50" viewBox="0 0 50 50" fill="none" xmlns="http://www.w3.org/2000/svg">
<path fill-rule="evenodd" clip-rule="evenodd" d="M0 25C0 11.1929 11.1929 0 25 0C38.807 0 50 11.1929 50 25C50 38.807 38.807 50 25 50C11.1929 50 0 38.807 0 25ZM30 15C31.3807 15 32.5 16.1193 32.5 17.5V32.5C32.5 33.8807 31.3807 35 30 35C28.6193 35 27.5 33.8807 27.5 32.5V17.5C27.5 16.1193 28.6193 15 30 15ZM20 15C21.3807 15 22.5 16.1193 22.5 17.5V32.5C22.5 33.8807 21.3807 35 20 35C18.6193 35 17.5 33.8807 17.5 32.5V17.5C17.5 16.1193 18.6193 15 20 15Z" fill="#351C06"/>
</svg>
