<svg width="23" height="22" viewBox="0 0 23 22" fill="none" xmlns="http://www.w3.org/2000/svg">
<path d="M12.3434 20.9934L12.3434 20.9934C14.178 19.464 16.6451 17.1371 18.6561 14.6273C19.6617 13.3723 20.5575 12.0663 21.2028 10.787C21.847 9.51007 22.25 8.24351 22.25 7.07193C22.25 4.93395 21.5753 3.30809 20.5426 2.19574C19.5117 1.08536 18.1373 0.501384 16.7641 0.423545C15.392 0.34576 14.0129 0.773148 12.9746 1.6953C12.3074 2.28784 11.7877 3.07873 11.5 4.05691C11.2123 3.07873 10.6926 2.28784 10.0254 1.69531C8.98708 0.773159 7.60803 0.345772 6.23585 0.423558C4.86272 0.501398 3.48832 1.08537 2.45741 2.19575C1.42468 3.3081 0.75 4.93396 0.75 7.07193C0.75 9.61687 2.33543 12.3989 4.33478 14.8744C6.34278 17.3605 8.80742 19.5848 10.6448 21.0216L10.7988 20.8247L10.6448 21.0216C11.1496 21.4163 11.852 21.4028 12.3434 20.9934Z" stroke="#B60404" stroke-width="0.5" stroke-linecap="round" stroke-linejoin="round"/>
</svg>
